<?xml version="1.0" standalone="no"?>
<!DOCTYPE svg PUBLIC "-//W3C//DTD SVG 20010904//EN"
 "http://www.w3.org/TR/2001/REC-SVG-20010904/DTD/svg10.dtd">
<svg version="1.0" xmlns="http://www.w3.org/2000/svg"
 width="700.000000pt" height="700.000000pt" viewBox="0 0 700.000000 700.000000"
 preserveAspectRatio="xMidYMid meet">
<metadata>
Created by potrace 1.14, written by Peter Selinger 2001-2017
</metadata>
<g transform="translate(0.000000,700.000000) scale(0.100000,-0.100000)"
fill="#000000" stroke="none">
<path d="M3278 6995 c-1 -1 -42 -5 -89 -9 -47 -4 -96 -9 -109 -11 -12 -2 -48
-7 -79 -11 -31 -3 -65 -8 -76 -10 -11 -2 -45 -8 -75 -14 -208 -38 -436 -105
-655 -192 -215 -86 -517 -247 -676 -361 -31 -23 -67 -49 -79 -57 -45 -30 -187
-145 -265 -214 -242 -214 -475 -491 -650 -771 -67 -107 -207 -374 -235 -445
-7 -19 -19 -48 -26 -65 -108 -248 -215 -660 -240 -920 -2 -22 -7 -76 -11 -120
-15 -155 -8 -585 12 -706 2 -13 6 -46 10 -74 9 -76 16 -116 25 -160 5 -22 11
-53 14 -70 29 -160 114 -436 189 -615 184 -442 459 -847 799 -1177 73 -71 109
-104 218 -197 208 -179 559 -390 861 -519 166 -71 462 -166 594 -190 11 -2 31
-7 45 -10 25 -6 118 -23 175 -32 17 -3 53 -8 80 -11 28 -3 55 -7 62 -9 72 -23
714 -24 785 -1 7 3 39 7 71 10 31 3 67 8 80 11 22 4 52 9 132 21 64 9 331 80
435 114 160 54 358 138 510 217 80 41 152 81 161 89 8 8 19 14 23 14 4 0 39
21 79 47 343 222 663 514 896 820 68 89 201 278 201 286 0 2 24 44 54 94 66
109 174 330 231 473 36 88 115 333 130 400 2 8 11 45 19 82 16 67 45 214 50
253 2 11 6 40 9 65 23 164 31 289 31 480 0 155 -9 333 -18 390 -3 14 -7 50
-11 80 -13 104 -39 247 -62 335 -8 33 -16 67 -18 76 -2 9 -13 49 -25 89 -12
40 -23 80 -25 89 -15 69 -130 353 -202 496 -179 356 -380 635 -662 916 -193
193 -302 284 -501 420 -215 147 -428 260 -695 368 -11 5 -33 14 -50 21 -141
57 -514 155 -665 175 -19 3 -46 7 -60 10 -13 2 -52 7 -86 11 -33 3 -74 8 -90
10 -33 5 -540 14 -546 9z"/>
</g>
</svg>
